<svg viewBox="0 0 120 40" fill="none" xmlns="http://www.w3.org/2000/svg" class="h-11 drop-shadow-sm"><g clip-path="url(#google-play-icon_svg__clip0_2336_71962)"><path d="M110.135 0H9.535c-.367 0-.73 0-1.095.002-.306.002-.61.008-.919.013C6.85.023 6.18.082 5.517.192a6.665 6.665 0 00-1.9.627A6.438 6.438 0 00.193 5.522a12.993 12.993 0 00-.179 2.002c-.01.306-.01.614-.015.92V31.56c.005.31.006.611.015.922.008.67.068 1.34.18 2.002.11.663.32 1.305.624 1.904.303.598.701 1.143 1.179 1.614.473.477 1.019.875 1.618 1.179a6.7 6.7 0 001.901.63c.663.11 1.333.169 2.004.177.31.007.613.011.919.011.366.002.728.002 1.095.002h100.6c.359 0 .724 0 1.084-.002.304 0 .617-.004.922-.01a13.27 13.27 0 002-.177 6.805 6.805 0 001.908-.631A6.293 6.293 0 00117.666 38a6.403 6.403 0 001.182-1.614c.302-.6.51-1.242.619-1.904.111-.662.173-1.331.185-2.002.004-.311.004-.612.004-.922.008-.364.008-.725.008-1.094V9.536c0-.366 0-.73-.008-1.092 0-.306 0-.614-.004-.92a13.57 13.57 0 00-.185-2.002 6.648 6.648 0 00-.619-1.904 6.469 6.469 0 00-2.799-2.8 6.77 6.77 0 00-1.908-.627c-.661-.11-1.33-.169-2-.176-.305-.005-.618-.011-.922-.013-.36-.002-.725-.002-1.084-.002z" fill="#A6A6A6"></path><path d="M8.445 39.125c-.305 0-.602-.004-.904-.01a12.696 12.696 0 01-1.87-.164 5.884 5.884 0 01-1.656-.548 5.406 5.406 0 01-1.397-1.016 5.321 5.321 0 01-1.02-1.397 5.722 5.722 0 01-.544-1.657 12.413 12.413 0 01-.166-1.875c-.007-.21-.015-.913-.015-.913v-23.1s.009-.692.015-.895a12.37 12.37 0 01.165-1.872 5.755 5.755 0 01.544-1.662c.26-.518.603-.99 1.015-1.398A5.565 5.565 0 015.668 1.05C6.288.95 6.915.895 7.543.887l.902-.012h102.769l.913.013a12.37 12.37 0 011.858.162 5.933 5.933 0 011.671.548 5.589 5.589 0 012.415 2.42c.261.52.441 1.076.536 1.649.103.624.161 1.255.173 1.887.003.283.003.588.003.89.008.375.008.732.008 1.092v20.929c0 .363 0 .718-.008 1.075 0 .325 0 .623-.004.93-.011.62-.068 1.24-.171 1.853a5.716 5.716 0 01-.54 1.67 5.47 5.47 0 01-1.015 1.386 5.414 5.414 0 01-1.4 1.022 5.855 5.855 0 01-1.668.55c-.618.101-1.243.156-1.869.163-.293.007-.599.011-.897.011l-1.084.002-101.69-.002z" fill="#000"></path><g clip-path="url(#google-play-icon_svg__clip1_2336_71962)"><path d="M18.811 20.207L9.091 30.52a2.629 2.629 0 003.87 1.58l10.952-6.307-5.102-5.586z" fill="#6C6C6C"></path><path d="M28.658 18.455l-4.727-2.738-5.312 4.728 5.34 5.338 4.7-2.737a2.62 2.62 0 000-4.618v.027z" fill="#C6C6C6"></path><path d="M9.091 10.944c-.058.22-.088.447-.091.675v18.253c.002.228.032.455.091.675l10.04-10.039-10.04-9.564z" fill="#7F7F7F"></path><path d="M18.875 20.737l5.038-5.03L12.96 9.375a2.628 2.628 0 00-3.888 1.57l9.802 9.793z" fill="#939393"></path></g><path d="M60.037 22.162a4.018 4.018 0 00-2.172.64 3.802 3.802 0 00-1.436 1.695 3.641 3.641 0 00-.217 2.178c.152.73.527 1.401 1.075 1.927a3.96 3.96 0 002.005 1.027 4.05 4.05 0 002.26-.22 3.883 3.883 0 001.752-1.392 3.67 3.67 0 00.654-2.095 3.587 3.587 0 00-.284-1.451 3.7 3.7 0 00-.849-1.23 3.863 3.863 0 00-1.28-.812 3.978 3.978 0 00-1.508-.267zm0 6.043a2.441 2.441 0 01-1.358-.305c-.41-.23-.74-.575-.945-.988a2.208 2.208 0 01-.204-1.33 2.25 2.25 0 01.607-1.209 2.392 2.392 0 011.209-.67 2.454 2.454 0 011.39.1c.443.167.823.458 1.091.836.269.378.413.825.414 1.283.015.29-.031.58-.135.854a2.163 2.163 0 01-.467.735 2.26 2.26 0 01-.728.503 2.33 2.33 0 01-.874.19zm-8.558-6.043a4.018 4.018 0 00-2.171.64 3.801 3.801 0 00-1.437 1.695 3.64 3.64 0 00-.217 2.178c.153.73.527 1.401 1.075 1.927a3.96 3.96 0 002.005 1.027 4.05 4.05 0 002.26-.22 3.883 3.883 0 001.752-1.392 3.67 3.67 0 00.654-2.095 3.587 3.587 0 00-.283-1.451 3.7 3.7 0 00-.85-1.23 3.863 3.863 0 00-1.28-.812 3.978 3.978 0 00-1.508-.267zm0 6.043a2.441 2.441 0 01-1.358-.305c-.41-.23-.74-.575-.945-.988a2.208 2.208 0 01-.204-1.33 2.25 2.25 0 01.608-1.209 2.392 2.392 0 011.208-.67 2.454 2.454 0 011.39.1c.443.167.823.458 1.091.836.269.378.413.825.414 1.283.015.29-.03.58-.134.854a2.163 2.163 0 01-.468.735 2.26 2.26 0 01-.728.503 2.33 2.33 0 01-.874.19zM41.306 23.32v1.593h3.966a3.279 3.279 0 01-.918 2.008c-.398.39-.877.696-1.405.898a4.198 4.198 0 01-1.662.27 4.494 4.494 0 01-3.116-1.244 4.17 4.17 0 01-1.291-3.003 4.17 4.17 0 011.29-3.002 4.493 4.493 0 013.117-1.244 4.35 4.35 0 013.012 1.141l1.166-1.123a5.81 5.81 0 00-1.911-1.21 5.98 5.98 0 00-2.248-.4 6.277 6.277 0 00-2.395.377c-.763.28-1.46.705-2.049 1.251a5.846 5.846 0 00-1.377 1.925 5.663 5.663 0 000 4.58c.32.724.788 1.379 1.377 1.924a6.105 6.105 0 002.05 1.251c.763.28 1.577.409 2.394.378.785.03 1.568-.1 2.298-.382a5.59 5.59 0 001.934-1.255 5.196 5.196 0 001.433-3.742 5.346 5.346 0 00-.083-.99h-5.582zM82.91 24.56a3.549 3.549 0 00-1.284-1.7 3.762 3.762 0 00-2.058-.698c-.503 0-1 .098-1.461.29a3.676 3.676 0 00-1.221.824 3.52 3.52 0 00-.78 1.224c-.17.455-.243.94-.211 1.422a3.65 3.65 0 00.751 2.248 3.884 3.884 0 001.998 1.366 4.023 4.023 0 002.45-.058 3.865 3.865 0 001.926-1.459l-1.331-.885c-.199.319-.48.582-.817.764a2.28 2.28 0 01-1.102.271 2.032 2.032 0 01-1.13-.288 1.924 1.924 0 01-.762-.853l5.225-2.079-.193-.39zm-5.326 1.256a2 2 0 01.114-.81c.093-.26.24-.5.43-.706.19-.205.422-.371.68-.49.258-.117.538-.184.824-.197.296-.017.59.05.847.193.256.143.463.356.594.612l-3.489 1.398zm-4.242 3.645h1.717V18.403h-1.717V29.46zm-2.81-6.458h-.064a2.697 2.697 0 00-.928-.66 2.787 2.787 0 00-1.129-.225 3.977 3.977 0 00-2.642 1.165 3.697 3.697 0 00-1.08 2.6c0 .967.387 1.898 1.08 2.599.693.7 1.639 1.118 2.642 1.165.39.007.776-.068 1.131-.221a2.64 2.64 0 00.926-.664h.064v.54c0 1.442-.798 2.211-2.084 2.211-.43-.009-.846-.14-1.198-.378a2.1 2.1 0 01-.776-.957l-1.488.592a3.568 3.568 0 001.372 1.633 3.775 3.775 0 002.09.597c2.01 0 3.673-1.142 3.673-3.92v-6.696h-1.589v.619zm-1.974 5.202a2.407 2.407 0 01-1.579-.715 2.238 2.238 0 01-.642-1.563c0-.581.23-1.14.642-1.563a2.407 2.407 0 011.58-.715c.293.012.582.081.847.203.266.122.504.294.7.506.195.212.344.46.438.729.093.268.13.553.108.835.025.284-.01.57-.103.84s-.242.52-.437.733a2.18 2.18 0 01-.701.508c-.268.122-.558.19-.853.202zm22.396-9.802H86.84V29.46h1.717v-4.193h2.397c.489.034.98-.03 1.443-.187a3.6 3.6 0 001.246-.727c.36-.322.646-.712.841-1.145a3.333 3.333 0 000-2.748 3.443 3.443 0 00-.841-1.145 3.6 3.6 0 00-1.246-.727 3.7 3.7 0 00-1.443-.186zm0 5.308h-2.397v-3.77h2.433c.258 0 .514.05.752.145.239.095.455.235.638.41.182.176.327.385.426.615a1.834 1.834 0 01-.426 2.063 1.971 1.971 0 01-.638.41 2.031 2.031 0 01-.752.144l-.036-.017zm10.596-1.584a3.306 3.306 0 00-1.792.403 3.14 3.14 0 00-1.266 1.287l1.515.61c.153-.266.383-.483.662-.626.278-.143.594-.205.908-.179.218-.024.439-.007.65.052.211.058.408.157.578.29a1.563 1.563 0 01.609 1.083v.106a3.956 3.956 0 00-1.791-.425c-1.634 0-3.305.885-3.305 2.495.016.342.103.678.257.987.153.309.37.585.636.812.266.227.577.4.914.509.337.109.694.151 1.048.125.431.023.861-.065 1.245-.255a2.41 2.41 0 00.941-.825h.055v.885h1.653v-4.255c0-1.938-1.525-3.061-3.48-3.061l-.037-.018zm-.211 6.06c-.56 0-1.341-.274-1.341-.938 0-.884.973-1.185 1.836-1.185a3.14 3.14 0 011.561.371c-.057.48-.294.925-.665 1.25a2.12 2.12 0 01-1.355.52l-.036-.018zm9.751-5.803l-1.965 4.794h-.055l-2.038-4.794h-1.837l3.058 6.705-1.745 3.725h1.791L113 22.384h-1.91zM95.664 29.46h1.708V18.403h-1.708V29.46zM37.893 10.871h1.627a1.972 1.972 0 11-.451-1.582l.398-.455a2.571 2.571 0 10.659 2.038h.017v-.6h-2.25v.6z" fill="#fff"></path><path fill-rule="evenodd" clip-rule="evenodd" d="M60.516 10.575c0 .335.054.659.161.97.113.308.279.581.498.82.22.239.494.429.82.571.328.138.708.207 1.143.207.434 0 .815-.069 1.142-.207.327-.142.6-.332.82-.571a2.33 2.33 0 00.49-.82 2.843 2.843 0 000-1.934 2.318 2.318 0 00-.49-.826 2.397 2.397 0 00-.82-.572A2.842 2.842 0 0063.138 8c-.435 0-.815.071-1.142.213-.328.143-.6.333-.82.572-.22.239-.386.514-.499.826a2.904 2.904 0 00-.16.964zm.728 0c0-.248.036-.491.108-.73.071-.243.184-.461.337-.654.153-.193.35-.346.59-.461.24-.12.526-.18.859-.18.332 0 .618.06.858.18.24.115.437.268.59.461.154.193.266.41.338.654a2.53 2.53 0 010 1.466 1.913 1.913 0 01-.338.648c-.153.193-.35.348-.59.468-.24.115-.526.172-.858.172-.332 0-.619-.057-.859-.172a1.717 1.717 0 01-.59-.468 1.913 1.913 0 01-.337-.647 2.6 2.6 0 01-.108-.737z" fill="#fff"></path><path d="M41.084 13.033V8.117h3.78v.55h-3.051v1.564h2.843v.55h-2.843v1.7h3.073v.552h-3.802zM47.012 13.033V8.668h-1.825v-.551h4.377v.55H47.74v4.366h-.728zM52.335 8.117v4.916h.728V8.117h-.728zM55.53 13.033V8.668h-1.824v-.551h4.376v.55h-1.824v4.366h-.728zM66.639 13.033V8.117h.774l2.882 3.986h.015V8.117H71v4.916h-.797l-2.86-3.945h-.014v3.945h-.69z" fill="#fff"></path></g><defs><clipPath id="google-play-icon_svg__clip0_2336_71962"><path fill="#fff" d="M0 0h119.664v40H0z"></path></clipPath><clipPath id="google-play-icon_svg__clip1_2336_71962"><path fill="#fff" transform="translate(9 9)" d="M0 0h21v23.473H0z"></path></clipPath></defs></svg>